<?xml version="1.0" standalone="no"?>
<!DOCTYPE svg PUBLIC "-//W3C//DTD SVG 20010904//EN"
 "http://www.w3.org/TR/2001/REC-SVG-20010904/DTD/svg10.dtd">
<svg version="1.0" xmlns="http://www.w3.org/2000/svg"
 width="50px" height="50px" viewBox="0 0 960.000000 960.000000"
 preserveAspectRatio="xMidYMid meet">
<g transform="translate(0.000000,960.000000) scale(0.100000,-0.100000)"
fill="#586374" stroke="none">
<path d="M7475 9039 c-204 -37 -288 -66 -425 -146 -205 -120 -375 -282 -466
-446 -147 -261 -194 -427 -194 -681 0 -250 53 -436 194 -686 38 -65 140 -193
194 -240 26 -23 58 -51 72 -64 90 -82 214 -154 365 -211 181 -68 248 -80 465
-80 138 0 205 4 265 17 107 23 303 99 390 150 83 49 185 125 185 139 0 5 4 9
10 9 29 0 192 185 246 280 141 250 194 436 194 686 0 254 -47 420 -194 681
-89 160 -256 321 -459 442 -137 82 -217 110 -422 147 -89 16 -339 17 -420 3z"/>
<path d="M2296 7748 c-9 -12 -16 -30 -16 -38 0 -9 -4 -20 -8 -25 -5 -6 -17
-30 -26 -55 -10 -25 -40 -82 -67 -126 -27 -45 -49 -87 -49 -94 0 -7 -20 -50
-45 -97 -25 -46 -45 -91 -45 -98 0 -16 -31 -87 -42 -95 -8 -7 -128 -246 -128
-256 0 -14 -43 -99 -54 -106 -7 -5 -7 -8 -1 -8 7 0 7 -3 0 -8 -9 -6 -45 -100
-45 -116 0 -3 269 -6 598 -6 1036 0 1389 -31 1607 -140 44 -22 85 -40 91 -40
5 0 19 -8 30 -18 10 -10 44 -32 74 -49 87 -50 310 -279 310 -318 0 -4 11 -20
23 -35 13 -15 38 -70 56 -121 18 -52 37 -103 42 -114 14 -32 29 -153 29 -243
0 -88 -17 -220 -30 -237 -5 -5 -11 -28 -15 -50 -8 -43 -52 -162 -68 -182 -5
-7 -23 -41 -39 -75 -63 -131 -185 -287 -301 -385 -21 -18 -68 -47 -105 -65
-37 -18 -73 -38 -79 -45 -18 -16 -115 -52 -166 -59 -23 -4 -47 -11 -53 -15
-23 -18 -283 -64 -429 -75 -49 -4 -96 -12 -104 -18 -10 -8 -382 -12 -1343 -14
l-1328 -3 0 -570 0 -569 969 0 969 0 6 -22 c3 -13 6 -35 6 -50 0 -16 4 -28 9
-28 4 0 28 -69 51 -152 24 -84 49 -162 55 -173 7 -11 27 -73 45 -138 18 -64
36 -117 41 -117 7 0 21 -49 38 -135 13 -62 35 -139 42 -145 7 -6 89 -279 89
-297 0 -6 4 -13 8 -15 8 -3 67 -181 78 -235 4 -18 10 -33 15 -33 5 0 9 -9 9
-20 0 -25 58 -241 69 -255 4 -5 11 -19 14 -30 28 -102 78 -256 90 -280 9 -16
28 -79 43 -140 15 -60 33 -124 40 -142 8 -17 14 -34 14 -39 0 -14 62 -209 76
-239 7 -16 27 -79 45 -140 17 -60 37 -123 44 -140 19 -43 43 -123 50 -172 l7
-43 919 0 c568 0 919 4 919 9 0 6 -4 12 -9 15 -5 3 -25 57 -45 118 -21 62 -45
131 -55 153 -26 56 -61 172 -61 201 0 13 -5 24 -10 24 -6 0 -9 3 -8 8 1 4 -4
19 -10 34 -6 15 -25 72 -42 127 -17 55 -39 117 -50 138 -10 21 -30 77 -44 124
-14 47 -35 105 -47 128 -11 24 -24 66 -29 95 -5 29 -16 71 -26 92 -10 21 -18
44 -18 49 -1 6 -4 12 -8 15 -3 3 -22 59 -42 125 -20 65 -40 122 -45 125 -4 3
-25 59 -46 125 -21 66 -42 122 -46 123 -5 2 -9 15 -9 28 0 26 -60 217 -85 269
-8 17 -28 75 -46 130 -17 55 -35 105 -39 110 -13 16 -70 198 -70 222 0 12 -4
23 -8 25 -4 2 -27 64 -51 138 -24 74 -47 140 -52 145 -4 6 -14 33 -23 60 -26
83 -55 169 -66 190 -17 36 -31 79 -40 125 -5 25 -11 52 -15 61 -5 12 12 18 87
33 128 24 272 58 278 65 5 6 92 31 233 66 37 10 67 20 67 24 0 7 30 21 125 56
38 15 72 30 75 33 3 4 47 27 98 52 50 24 92 48 92 52 0 4 7 8 16 8 20 0 126
59 136 76 4 6 31 27 60 45 29 19 58 38 63 45 6 6 30 26 55 44 78 59 240 215
240 231 0 3 7 12 16 20 24 20 125 147 172 217 24 34 46 62 50 62 4 0 15 15 23
33 18 37 85 165 98 187 37 62 98 207 123 290 6 19 14 37 18 40 12 8 47 183 62
305 17 142 17 470 0 605 -14 108 -50 281 -61 290 -4 3 -17 36 -30 74 -14 38
-35 90 -49 115 -13 25 -42 80 -64 121 -54 102 -87 155 -124 199 -17 20 -35 43
-40 52 -15 28 -144 170 -224 247 -192 186 -284 261 -420 338 -36 21 -67 41
-70 45 -3 4 -37 22 -75 40 -39 18 -82 40 -96 50 -31 22 -148 64 -201 73 -20 4
-38 11 -40 15 -3 10 -284 74 -373 87 -27 3 -54 10 -60 14 -12 10 -301 45 -485
60 -278 21 -590 30 -1112 30 l-537 0 -15 -22z"/>
</g>
</svg>
